<svg width="52" height="46" viewBox="0 0 52 46" fill="none" xmlns="http://www.w3.org/2000/svg">
<path d="M42.4734 14.7456C41.925 14.5628 41.3766 14.3901 40.8281 14.2276C40.9195 13.8519 41.0008 13.4761 41.082 13.1003C42.3313 7.04717 41.5086 2.18232 38.7359 0.577636C36.0648 -0.955958 31.7078 0.638573 27.3 4.47764C26.8633 4.85342 26.4367 5.24951 26.0305 5.6456C25.7562 5.38154 25.4719 5.11748 25.1875 4.86357C20.5664 0.760449 15.9352 -0.966114 13.1625 0.64873C10.5016 2.19248 9.70937 6.77295 10.8266 12.5011C10.9383 13.0698 11.0602 13.6284 11.2023 14.1972C10.5523 14.38 9.9125 14.5831 9.31328 14.7964C3.88984 16.6753 0 19.6409 0 22.7081C0 25.8769 4.14375 29.0558 9.78047 30.9854C10.2375 31.1378 10.6945 31.2901 11.1617 31.4222C11.0094 32.0315 10.8773 32.6308 10.7555 33.2503C9.68906 38.887 10.5219 43.3558 13.1828 44.8894C15.925 46.4737 20.5359 44.8487 25.025 40.9183C25.3805 40.6034 25.7359 40.2784 26.0914 39.9331C26.5383 40.3698 27.0055 40.7862 27.4727 41.1925C31.8195 44.93 36.1156 46.4433 38.7664 44.9097C41.5086 43.3253 42.4023 38.5214 41.2445 32.6714C41.1531 32.2245 41.0516 31.7675 40.9398 31.3003C41.2648 31.2089 41.5797 31.1073 41.8945 31.0058C47.7547 29.0659 52 25.9276 52 22.7081C52 19.6308 47.9984 16.6448 42.4734 14.7456ZM28.732 6.12295C32.5102 2.83232 36.0344 1.54248 37.6391 2.4667C39.3555 3.45185 40.0156 7.4331 38.9391 12.6636C38.868 13.0089 38.7969 13.344 38.7055 13.6792C36.4508 13.1714 34.1656 12.8058 31.8703 12.6026C30.55 10.7136 29.1078 8.90576 27.5438 7.20967C27.9398 6.83389 28.3258 6.47842 28.732 6.12295ZM16.9812 27.9792C17.4992 28.8628 18.0273 29.7464 18.5859 30.6097C17.0016 30.437 15.4273 30.1831 13.8734 29.8479C14.3203 28.3854 14.8789 26.8722 15.5289 25.3284C15.9961 26.2222 16.4734 27.1058 16.9812 27.9792ZM13.9039 15.7612C15.3664 15.4362 16.9203 15.1722 18.5352 14.969C17.9969 15.812 17.4688 16.6753 16.9711 17.5487C16.4734 18.412 15.9859 19.2956 15.5289 20.1894C14.8891 18.6761 14.3508 17.1933 13.9039 15.7612ZM16.6867 22.7589C17.357 21.3573 18.0883 19.9862 18.8602 18.6354C19.632 17.2847 20.4648 15.9745 21.3383 14.6847C22.8617 14.5729 24.4156 14.512 26 14.512C27.5844 14.512 29.1484 14.5729 30.6617 14.6847C31.525 15.9644 32.3477 17.2745 33.1297 18.6151C33.9117 19.9558 34.643 21.3269 35.3336 22.7183C34.6531 24.1198 33.9219 25.5011 33.1398 26.862C32.368 28.2128 31.5453 29.5229 30.682 30.8229C29.1688 30.9347 27.5945 30.9854 26 30.9854C24.4055 30.9854 22.8617 30.9347 21.3687 30.8433C20.4852 29.5534 19.6523 28.2331 18.8703 26.8823C18.0883 25.5315 17.3672 24.1604 16.6867 22.7589ZM35.0289 27.9589C35.5469 27.0651 36.0344 26.1612 36.5117 25.2472C37.1617 26.7198 37.7305 28.2128 38.2281 29.7464C36.6539 30.1019 35.0594 30.3761 33.4547 30.5589C34.0031 29.7058 34.5211 28.8323 35.0289 27.9589ZM36.4914 20.1894C36.0141 19.2956 35.5266 18.4019 35.0187 17.5284C34.5211 16.6651 34.0031 15.812 33.4648 14.969C35.1 15.1722 36.6641 15.4464 38.1266 15.7815C37.6594 17.2847 37.1109 18.7472 36.4914 20.1894ZM26.0203 8.76357C27.0867 9.92139 28.0922 11.1401 29.0266 12.3995C27.0156 12.3081 24.9945 12.3081 22.9836 12.3995C23.9789 11.0894 25.0047 9.8706 26.0203 8.76357ZM14.2391 2.53779C15.9453 1.54248 19.7336 2.96436 23.725 6.49873C23.9789 6.72217 24.2328 6.96592 24.4969 7.20967C22.9227 8.90576 21.4703 10.7136 20.1398 12.6026C17.8445 12.8058 15.5695 13.1612 13.3148 13.6589C13.1828 13.1409 13.0711 12.6128 12.9594 12.0847C12.0047 7.16904 12.6344 3.46201 14.2391 2.53779ZM11.7508 29.3097C11.3242 29.1878 10.9078 29.0558 10.4914 28.9136C8.32813 28.2331 5.87031 27.1565 4.09297 25.7448C3.06719 25.0339 2.37656 23.937 2.18359 22.7081C2.18359 20.8495 5.39297 18.4729 10.0242 16.8581C10.6031 16.655 11.1922 16.4722 11.7812 16.2995C12.4719 18.5034 13.3047 20.6667 14.2695 22.7589C13.2945 24.8815 12.4516 27.0753 11.7508 29.3097ZM23.593 39.2628C21.9172 40.7964 19.9773 42.0151 17.8648 42.8479C16.7375 43.3862 15.4375 43.437 14.2797 42.98C12.6648 42.0456 11.9945 38.4604 12.9086 33.6362C13.0203 33.0675 13.1422 32.4987 13.2844 31.9401C15.5594 32.4276 17.8547 32.7628 20.1805 32.9354C21.5211 34.8347 22.9937 36.6526 24.568 38.3589C24.243 38.6737 23.918 38.9784 23.593 39.2628ZM26.0812 36.7948C25.0453 35.6776 24.0094 34.4386 23.0039 33.1081C23.9789 33.1487 24.9844 33.169 26 33.169C27.0461 33.169 28.0719 33.1487 29.0875 33.0979C28.1531 34.3878 27.1477 35.6167 26.0812 36.7948ZM39.3555 39.8417C39.2641 41.0808 38.6547 42.2386 37.6797 43.0206C36.0648 43.955 32.6219 42.7362 28.9047 39.5472C28.4781 39.1815 28.0516 38.7854 27.6148 38.3792C29.1687 36.6628 30.6008 34.8448 31.9008 32.9354C34.2266 32.7425 36.5422 32.387 38.8273 31.869C38.9289 32.2854 39.0203 32.7019 39.1016 33.1081C39.5992 35.3019 39.6805 37.587 39.3555 39.8417ZM41.2039 28.9237C40.9195 29.0151 40.6352 29.1065 40.3406 29.1878C39.6297 26.9737 38.7563 24.8104 37.7508 22.7081C38.7258 20.6362 39.5484 18.5034 40.2391 16.3198C40.7672 16.4722 41.275 16.6347 41.7625 16.7972C46.4953 18.4222 49.8164 20.8394 49.8164 22.6878C49.8164 24.6784 46.2719 27.2479 41.2039 28.9237Z" fill="white"/>
<path d="M29.224 22.2699L29.4639 22.0301L26.7068 19.273L21.7592 24.2205C21.5385 24.4413 21.3772 24.7151 21.288 25.0143L20.5367 27.5698C20.4836 27.7481 20.5324 27.9413 20.6661 28.0729C20.7999 28.2045 20.9909 28.2533 21.1692 28.2023L23.7225 27.451C24.0218 27.3618 24.2956 27.2005 24.5163 26.9798L28.7444 22.7518L29.224 22.2699ZM23.9114 25.8442L23.7183 26.326C23.6334 26.3918 23.5379 26.4407 23.436 26.4725L21.7762 26.9607L22.2644 25.303C22.2941 25.199 22.345 25.1035 22.4108 25.0207L22.8926 24.8276V25.5068C22.8926 25.6935 23.0455 25.8464 23.2322 25.8464H23.9114V25.8442ZM28.2137 17.7639L27.9081 18.0716L27.4284 18.5513L27.1864 18.7912L29.9436 21.5483L30.9709 20.521C31.5015 19.9904 31.5015 19.1308 30.9709 18.6001L30.1367 17.7639C29.6061 17.2333 28.7465 17.2333 28.2159 17.7639H28.2137ZM27.2077 21.3297L24.1513 24.3861C24.0197 24.5177 23.8032 24.5177 23.6716 24.3861C23.54 24.2545 23.54 24.038 23.6716 23.9064L26.728 20.85C26.8596 20.7184 27.0761 20.7184 27.2077 20.85C27.3393 20.9816 27.3393 21.1981 27.2077 21.3297Z" fill="white"/>
</svg>
